<svg
 xmlns="http://www.w3.org/2000/svg"
 xmlns:xlink="http://www.w3.org/1999/xlink"
 width="40px" height="40px">
<path fill-rule="evenodd"  fill="white"
 d="M39.167,24.358 L34.334,24.358 L34.334,35.774 C34.334,38.101 32.465,39.995 30.167,39.995 L9.833,39.995 C7.535,39.995 5.666,38.101 5.666,35.774 L5.666,24.358 L0.833,24.358 C0.373,24.358 0.000,23.981 0.000,23.514 L0.000,23.244 C0.000,20.917 1.869,19.024 4.167,19.024 L5.666,19.024 L5.666,17.271 C5.666,16.805 6.039,16.427 6.499,16.427 L33.501,16.427 C33.961,16.427 34.334,16.805 34.334,17.271 L34.334,19.024 L35.833,19.024 C38.131,19.024 40.000,20.917 40.000,23.244 L40.000,23.514 C40.000,23.981 39.627,24.358 39.167,24.358 ZM5.666,20.712 L4.167,20.712 C2.983,20.712 1.989,21.549 1.731,22.670 L5.666,22.670 L5.666,20.712 ZM32.667,18.115 L7.333,18.115 L7.333,19.868 L7.333,23.514 L7.333,35.774 C7.333,37.171 8.454,38.306 9.833,38.306 L30.167,38.306 C31.546,38.306 32.667,37.171 32.667,35.774 L32.667,23.514 L32.667,19.868 L32.667,18.115 ZM35.833,20.712 L34.334,20.712 L34.334,22.670 L38.269,22.670 C38.012,21.549 37.017,20.712 35.833,20.712 ZM33.501,14.468 L6.499,14.468 C6.039,14.468 5.666,14.091 5.666,13.624 L5.666,13.219 C5.666,9.961 8.283,7.310 11.499,7.310 L17.366,7.310 L17.366,5.960 C16.790,5.306 16.466,4.460 16.466,3.588 C16.466,1.614 18.052,0.008 20.000,0.008 C21.948,0.008 23.534,1.614 23.534,3.588 C23.534,4.460 23.209,5.306 22.633,5.960 L22.633,7.310 L28.501,7.310 C31.717,7.310 34.334,9.961 34.334,13.219 L34.334,13.624 C34.334,14.091 33.961,14.468 33.501,14.468 ZM20.000,1.697 C18.971,1.697 18.133,2.545 18.133,3.588 C18.133,4.122 18.355,4.618 18.758,4.986 C18.933,5.146 19.033,5.374 19.033,5.613 L19.033,7.310 L20.967,7.310 L20.967,5.613 C20.967,5.374 21.067,5.146 21.242,4.986 C21.645,4.618 21.867,4.122 21.867,3.588 C21.867,2.545 21.029,1.697 20.000,1.697 ZM28.501,8.998 L21.800,8.998 L18.200,8.998 L11.499,8.998 C9.348,8.998 7.572,10.658 7.355,12.780 L32.645,12.780 C32.427,10.658 30.652,8.998 28.501,8.998 Z"/>
</svg>
