<svg
 xmlns="http://www.w3.org/2000/svg"
 xmlns:xlink="http://www.w3.org/1999/xlink"
 width="40px" height="35px">
<path fill-rule="evenodd"  fill="white"
 d="M39.084,23.361 C38.575,23.361 38.164,22.942 38.164,22.425 L38.164,5.357 C38.164,3.672 36.389,1.869 35.141,1.869 L33.900,1.869 L31.568,30.905 C31.378,33.274 29.907,34.994 28.072,34.994 L11.550,34.994 C9.714,34.994 8.243,33.274 8.054,30.905 L6.350,9.685 C6.294,9.645 6.241,9.599 6.194,9.545 L0.237,2.802 C0.020,2.556 -0.054,2.212 0.043,1.896 C0.141,1.582 0.393,1.342 0.709,1.266 L5.881,0.023 C6.035,-0.015 6.189,-0.010 6.331,0.030 C6.408,0.008 6.487,-0.002 6.569,-0.002 L35.141,-0.002 C37.503,-0.002 40.002,2.753 40.003,5.357 L40.003,22.425 C40.003,22.942 39.591,23.361 39.084,23.361 ZM5.730,1.982 L2.640,2.724 L6.104,6.645 L5.730,1.982 ZM7.566,1.870 L9.886,30.755 C9.994,32.104 10.710,33.123 11.549,33.123 L28.072,33.123 C28.911,33.123 29.626,32.104 29.735,30.755 L32.054,1.870 L7.566,1.870 ZM23.742,29.936 L18.543,29.936 C18.035,29.936 17.623,29.517 17.623,29.000 C17.623,28.484 18.035,28.065 18.543,28.065 L22.823,28.065 L22.823,24.311 L20.205,24.311 C19.697,24.311 19.285,23.892 19.285,23.375 C19.285,22.858 19.697,22.439 20.205,22.439 L22.823,22.439 L22.823,18.684 L18.543,18.684 C18.035,18.684 17.623,18.265 17.623,17.749 C17.623,17.232 18.035,16.813 18.543,16.813 L22.823,16.813 L22.823,13.059 L20.205,13.059 C19.697,13.059 19.285,12.640 19.285,12.123 C19.285,11.606 19.697,11.187 20.205,11.187 L22.823,11.187 L22.823,7.433 L18.543,7.433 C18.035,7.433 17.623,7.014 17.623,6.498 C17.623,5.981 18.035,5.562 18.543,5.562 L23.742,5.562 C24.250,5.562 24.662,5.981 24.662,6.498 L24.662,29.000 C24.662,29.517 24.250,29.936 23.742,29.936 Z"/>
</svg>
