<svg
 xmlns="http://www.w3.org/2000/svg"
 xmlns:xlink="http://www.w3.org/1999/xlink"
 width="47px" height="40px">
<path fill-rule="evenodd"  fill="white"
 d="M46.021,19.691 L43.612,19.691 L15.268,19.691 L12.860,19.691 C12.319,19.691 11.881,19.248 11.881,18.700 C11.881,18.152 12.319,17.709 12.860,17.709 L14.337,17.709 C14.825,10.045 20.889,3.907 28.461,3.413 L28.461,0.990 C28.461,0.442 28.900,-0.001 29.441,-0.001 C29.981,-0.001 30.420,0.442 30.420,0.990 L30.420,3.413 C37.992,3.907 44.056,10.045 44.543,17.709 L46.021,17.709 C46.561,17.709 47.000,18.152 47.000,18.700 C47.000,19.248 46.561,19.691 46.021,19.691 ZM29.441,5.345 C22.495,5.345 16.787,10.806 16.283,17.709 L42.597,17.709 C42.094,10.806 36.386,5.345 29.441,5.345 ZM12.661,25.916 L12.661,26.750 L23.502,22.906 C23.744,22.805 24.042,22.730 24.344,22.701 L30.012,22.139 C30.887,22.049 31.766,22.340 32.427,22.940 C33.089,23.540 33.473,24.401 33.480,25.300 C33.492,26.937 32.170,28.351 30.468,28.519 L25.507,29.012 L23.187,30.343 C23.162,30.358 23.121,30.382 23.133,30.458 C23.144,30.535 23.192,30.544 23.220,30.551 L30.208,32.061 L38.813,27.523 C40.355,26.703 42.270,27.305 43.079,28.865 C43.890,30.425 43.296,32.362 41.755,33.184 L32.250,39.290 C31.731,39.571 31.221,39.699 30.709,39.699 C30.541,39.699 30.372,39.685 30.204,39.657 L12.661,37.102 L12.661,38.031 C12.661,39.124 11.783,40.013 10.703,40.013 L1.959,40.013 C0.878,40.013 -0.000,39.124 -0.000,38.031 L-0.000,25.916 C-0.000,24.823 0.878,23.933 1.959,23.933 L10.703,23.933 C11.783,23.933 12.661,24.823 12.661,25.916 ZM12.661,35.001 C12.661,35.057 12.702,35.104 12.757,35.113 L30.505,37.698 C30.853,37.759 31.043,37.697 31.267,37.577 L40.775,31.470 C41.429,31.117 41.654,30.381 41.346,29.787 L41.346,29.786 C41.038,29.195 40.310,28.967 39.723,29.279 L31.105,33.847 C30.636,34.047 30.214,34.087 29.800,34.000 L22.810,32.489 C21.964,32.306 21.331,31.628 21.197,30.763 C21.064,29.898 21.464,29.058 22.215,28.622 L24.490,27.306 C24.743,27.159 25.021,27.070 25.314,27.040 L30.277,26.547 C30.968,26.478 31.526,25.926 31.521,25.315 C31.519,24.968 31.376,24.649 31.120,24.416 C30.899,24.215 30.614,24.105 30.324,24.105 C30.286,24.105 30.247,24.108 30.208,24.111 L24.533,24.674 C24.417,24.686 24.305,24.714 24.194,24.759 L12.735,28.823 C12.691,28.840 12.661,28.882 12.661,28.930 L12.661,35.001 ZM10.704,35.005 C10.704,35.004 10.703,35.003 10.703,35.001 L10.703,28.930 C10.703,28.929 10.703,28.929 10.703,28.928 L10.703,25.916 L1.959,25.916 L1.959,38.031 L10.704,38.031 L10.704,35.005 Z"/>
</svg>
